<mxfile host="app.diagrams.net" modified="2023-04-28T03:41:56.299Z" agent="Mozilla/5.0 (Windows NT 10.0; Win64; x64) AppleWebKit/537.36 (KHTML, like Gecko) Chrome/112.0.0.0 Safari/537.36" etag="rLSG_XcXGu0FIZ63_61c" version="21.2.1" type="github">
  <diagram name="第 1 页" id="5FPy8bEj4UY5Cmy1tWpf">
    <mxGraphModel dx="1434" dy="876" grid="1" gridSize="10" guides="1" tooltips="1" connect="1" arrows="1" fold="1" page="1" pageScale="1" pageWidth="827" pageHeight="1169" math="0" shadow="0">
      <root>
        <mxCell id="0" />
        <mxCell id="1" parent="0" />
        <mxCell id="FLdxYK98aJRnF1yqf2UK-12" style="edgeStyle=orthogonalEdgeStyle;rounded=0;orthogonalLoop=1;jettySize=auto;html=1;exitX=0.25;exitY=0;exitDx=0;exitDy=0;entryX=0.25;entryY=1;entryDx=0;entryDy=0;" edge="1" parent="1" source="FLdxYK98aJRnF1yqf2UK-1" target="FLdxYK98aJRnF1yqf2UK-2">
          <mxGeometry relative="1" as="geometry" />
        </mxCell>
        <mxCell id="FLdxYK98aJRnF1yqf2UK-1" value="OA等渠道系统" style="rounded=1;whiteSpace=wrap;html=1;" vertex="1" parent="1">
          <mxGeometry x="360" y="525" width="120" height="60" as="geometry" />
        </mxCell>
        <mxCell id="FLdxYK98aJRnF1yqf2UK-11" style="edgeStyle=orthogonalEdgeStyle;rounded=0;orthogonalLoop=1;jettySize=auto;html=1;exitX=0.75;exitY=1;exitDx=0;exitDy=0;" edge="1" parent="1" source="FLdxYK98aJRnF1yqf2UK-2">
          <mxGeometry relative="1" as="geometry">
            <mxPoint x="450" y="520" as="targetPoint" />
          </mxGeometry>
        </mxCell>
        <mxCell id="FLdxYK98aJRnF1yqf2UK-14" style="edgeStyle=orthogonalEdgeStyle;rounded=0;orthogonalLoop=1;jettySize=auto;html=1;exitX=0.25;exitY=0;exitDx=0;exitDy=0;entryX=0.25;entryY=1;entryDx=0;entryDy=0;" edge="1" parent="1" source="FLdxYK98aJRnF1yqf2UK-2" target="FLdxYK98aJRnF1yqf2UK-3">
          <mxGeometry relative="1" as="geometry" />
        </mxCell>
        <mxCell id="FLdxYK98aJRnF1yqf2UK-2" value="ESB" style="rounded=1;whiteSpace=wrap;html=1;" vertex="1" parent="1">
          <mxGeometry x="360" y="420" width="120" height="60" as="geometry" />
        </mxCell>
        <mxCell id="FLdxYK98aJRnF1yqf2UK-10" style="edgeStyle=orthogonalEdgeStyle;rounded=0;orthogonalLoop=1;jettySize=auto;html=1;exitX=0.75;exitY=1;exitDx=0;exitDy=0;entryX=0.75;entryY=0;entryDx=0;entryDy=0;" edge="1" parent="1" source="FLdxYK98aJRnF1yqf2UK-3" target="FLdxYK98aJRnF1yqf2UK-2">
          <mxGeometry relative="1" as="geometry" />
        </mxCell>
        <mxCell id="FLdxYK98aJRnF1yqf2UK-15" style="edgeStyle=orthogonalEdgeStyle;rounded=0;orthogonalLoop=1;jettySize=auto;html=1;exitX=0.25;exitY=0;exitDx=0;exitDy=0;entryX=0.25;entryY=1;entryDx=0;entryDy=0;" edge="1" parent="1" source="FLdxYK98aJRnF1yqf2UK-3" target="FLdxYK98aJRnF1yqf2UK-4">
          <mxGeometry relative="1" as="geometry" />
        </mxCell>
        <mxCell id="FLdxYK98aJRnF1yqf2UK-3" value="短信平台" style="rounded=1;whiteSpace=wrap;html=1;" vertex="1" parent="1">
          <mxGeometry x="360" y="320" width="120" height="60" as="geometry" />
        </mxCell>
        <mxCell id="FLdxYK98aJRnF1yqf2UK-9" style="edgeStyle=orthogonalEdgeStyle;rounded=0;orthogonalLoop=1;jettySize=auto;html=1;exitX=0.75;exitY=1;exitDx=0;exitDy=0;entryX=0.75;entryY=0;entryDx=0;entryDy=0;" edge="1" parent="1" source="FLdxYK98aJRnF1yqf2UK-4" target="FLdxYK98aJRnF1yqf2UK-3">
          <mxGeometry relative="1" as="geometry" />
        </mxCell>
        <mxCell id="FLdxYK98aJRnF1yqf2UK-4" value="客户" style="rounded=1;whiteSpace=wrap;html=1;" vertex="1" parent="1">
          <mxGeometry x="360" y="210" width="120" height="60" as="geometry" />
        </mxCell>
      </root>
    </mxGraphModel>
  </diagram>
</mxfile>
